<svg xmlns="http://www.w3.org/2000/svg" style="display: none;">
    <!-- Logo optimizado -->
    <symbol id="logo" viewBox="0 0 32 32">
        <path fill="currentColor" d="M16 2a14 14 0 1 0 0 28 14 14 0 0 0 0-28zm0 24a10 10 0 1 1 0-20 10 10 0 0 1 0 20z"/>
        <path fill="currentColor" d="M21 12h-2v8h2v-8zm-8 0h-2v8h2v-8zm4-2h-2v12h2V10z"/>
    </symbol>
    
    <!-- Menú hamburguesa optimizado -->
    <symbol id="menu" viewBox="0 0 24 24">
        <path fill="currentColor" d="M3 18h18v-2H3v2zm0-5h18v-2H3v2zm0-7v2h18V6H3z"/>
    </symbol>
    
    <!-- Icono de búsqueda optimizado -->
    <symbol id="search" viewBox="0 0 24 24">
        <path fill="currentColor" d="M15.5 14h-.79l-.28-.27A6.47 6.47 0 0 0 16 9.5 6.5 6.5 0 1 0 9.5 16c1.61 0 3.09-.59 4.23-1.57l.27.28v.79l5 4.99L20.49 19l-4.99-5zm-6 0C7.01 14 5 11.99 5 9.5S7.01 5 9.5 5 14 7.01 14 9.5 11.99 14 9.5 14z"/>
    </symbol>
    
    <!-- Icono de característica 1 optimizado -->
    <symbol id="feature1" viewBox="0 0 48 48">
        <path fill="currentColor" d="M24 4a20 20 0 1 0 0 40 20 20 0 0 0 0-40zm0 36a16 16 0 1 1 0-32 16 16 0 0 1 0 32z"/>
        <path fill="currentColor" d="M22 22h4v12h-4zm0-8h4v4h-4z"/>
    </symbol>
    
    <!-- Icono de característica 2 optimizado -->
    <symbol id="feature2" viewBox="0 0 48 48">
        <path fill="currentColor" d="M42 10H6a4 4 0 0 0-4 4v20a4 4 0 0 0 4 4h36a4 4 0 0 0 4-4V14a4 4 0 0 0-4-4zm0 24H6V14h36v20z"/>
        <path fill="currentColor" d="M10 18h4v4h-4zm6 0h20v4H16zm-6 8h4v4h-4zm6 0h12v4H16z"/>
    </symbol>
    
    <!-- Icono de característica 3 optimizado -->
    <symbol id="feature3" viewBox="0 0 48 48">
        <path fill="currentColor" d="M24 4a20 20 0 1 0 0 40 20 20 0 0 0 0-40zm-2 32h-4V20h4v16zm8 0h-4V12h4v24z"/>
    </symbol>
    
    <!-- Icono de cerrar optimizado -->
    <symbol id="close" viewBox="0 0 24 24">
        <path fill="currentColor" d="M19 6.41L17.59 5 12 10.59 6.41 5 5 6.41 10.59 12 5 17.59 6.41 19 12 13.41 17.59 19 19 17.59 13.41 12z"/>
    </symbol>
    
    <!-- Icono de flecha optimizado -->
    <symbol id="arrow" viewBox="0 0 24 24">
        <path fill="currentColor" d="M12 4l-1.41 1.41L16.17 11H4v2h12.17l-5.58 5.59L12 20l8-8z"/>
    </symbol>
    
    <!-- Icono de enlace externo (nuevo) -->
    <symbol id="external-link" viewBox="0 0 24 24">
        <path fill="currentColor" d="M19 19H5V5h7V3H5a2 2 0 0 0-2 2v14a2 2 0 0 0 2 2h14c1.1 0 2-.9 2-2v-7h-2v7zM14 3v2h3.59l-9.83 9.83 1.41 1.41L19 6.41V10h2V3h-7z"/>
    </symbol>
</svg>
    <!-- Icono de campana (Notificaciones) -->
    <symbol id="bell" viewBox="0 0 24 24">
        <path fill="currentColor" d="M12 22c1.1 0 2-.9 2-2h-4c0 1.1.9 2 2 2zm6-6v-5c0-3.07-1.63-5.64-4.5-6.32V4c0-.83-.67-1.5-1.5-1.5s-1.5.67-1.5 1.5v.68C7.63 5.36 6 7.93 6 11v5l-2 2v1h16v-1l-2-2z"/>
    </symbol>
    
    <!-- Icono de ubicación (Geolocation) -->
    <symbol id="location" viewBox="0 0 24 24">
        <path fill="currentColor" d="M12 2C8.13 2 5 5.13 5 9c0 5.25 7 13 7 13s7-7.75 7-13c0-3.87-3.13-7-7-7zm0 9.5c-1.38 0-2.5-1.12-2.5-2.5s1.12-2.5 2.5-2.5 2.5 1.12 2.5 2.5-1.12 2.5-2.5 2.5z"/>
    </symbol>
</svg>
