<svg xmlns="http://www.w3.org/2000/svg" style="display: none;">
    <!-- Logo de KooPages -->
    <symbol id="logo" viewBox="0 0 100 100">
        <circle cx="50" cy="50" r="45" fill="#3498db" stroke="#2980b9" stroke-width="2"/>
        <path d="M35 35 L65 35 L65 65 L35 65 Z" fill="white"/>
        <circle cx="40" cy="40" r="5" fill="#3498db"/>
        <circle cx="60" cy="40" r="5" fill="#3498db"/>
        <path d="M35 55 L65 55" stroke="#3498db" stroke-width="3" stroke-linecap="round"/>
        <path d="M50 30 L50 50" stroke="white" stroke-width="2" stroke-linecap="round"/>
        <path d="M50 50 L60 60" stroke="white" stroke-width="2" stroke-linecap="round"/>
    </symbol>

    <!-- Icono de actualizar -->
    <symbol id="refresh" viewBox="0 0 24 24">
        <path d="M17.65 6.35C16.2 4.9 14.21 4 12 4c-4.42 0-7.99 3.58-7.99 8s3.57 8 7.99 8c3.73 0 6.84-2.55 7.73-6h-2.08c-.82 2.33-3.04 4-5.65 4-3.31 0-6-2.69-6-6s2.69-6 6-6c1.66 0 3.14.69 4.22 1.78L13 11h7V4l-2.35 2.35z"/>
    </symbol>

    <!-- Icono de abrir externo -->
    <symbol id="external" viewBox="0 0 24 24">
        <path d="M19 19H5V5h7V3H5c-1.11 0-2 .9-2 2v14c0 1.1.89 2 2 2h14c1.1 0 2-.9 2-2v-7h-2v7zM14 3v2h3.59l-9.83 9.83 1.41 1.41L19 6.41V10h2V3h-7z"/>
    </symbol>

    <!-- Icono de cerrar -->
    <symbol id="close" viewBox="0 0 24 24">
        <path d="M19 6.41L17.59 5 12 10.59 6.41 5 5 6.41 10.59 12 5 17.59 6.41 19 12 13.41 17.59 19 19 17.59 13.41 12z"/>
    </symbol>

    <!-- Icono de email -->
    <symbol id="email" viewBox="0 0 24 24">
        <path d="M20 4H4c-1.1 0-1.99.9-1.99 2L2 18c0 1.1.9 2 2 2h16c1.1 0 2-.9 2-2V6c0-1.1-.9-2-2-2zm0 4l-8 5-8-5V6l8 5 8-5v2z"/>
    </symbol>

    <!-- Icono de spinner -->
    <symbol id="spinner" viewBox="0 0 50 50">
        <path d="M25,5A20,20 0 1,0 45,25 A20,20 0 0,0 25,5" fill="none" stroke="currentColor" stroke-width="4" stroke-linecap="round">
            <animateTransform attributeName="transform" type="rotate" from="0 25 25" to="360 25 25" dur="1s" repeatCount="indefinite"/>
        </path>
    </symbol>

    <!-- Icono de error -->
    <symbol id="error" viewBox="0 0 24 24">
        <path d="M12 2C6.48 2 2 6.48 2 12s4.48 10 10 10 10-4.48 10-10S17.52 2 12 2zm1 15h-2v-2h2v2zm0-4h-2V7h2v6z"/>
    </symbol>

    <!-- Iconos de redes sociales -->
    <symbol id="google" viewBox="0 0 24 24">
        <path d="M12.24 10.285V14.4h6.806c-.275 1.765-2.056 5.174-6.806 5.174-4.095 0-7.439-3.389-7.439-7.574s3.345-7.574 7.439-7.574c2.33 0 3.891.989 4.785 1.849l3.254-3.138C18.189 1.186 15.479 0 12.24 0c-6.635 0-12 5.365-12 12s5.365 12 12 12c6.926 0 11.52-4.869 11.52-11.726 0-.788-.085-1.39-.189-1.989H12.24z"/>
    </symbol>

    <symbol id="youtube" viewBox="0 0 24 24">
        <path d="M19.615 3.184c-3.604-.246-11.631-.245-15.23 0-3.897.266-4.356 2.62-4.385 8.816.029 6.185.484 8.549 4.385 8.816 3.6.245 11.626.246 15.23 0 3.897-.266 4.356-2.62 4.385-8.816-.029-6.185-.484-8.549-4.385-8.816zm-10.615 12.816v-8l8 3.993-8 4.007z"/>
    </symbol>

    <symbol id="wikipedia" viewBox="0 0 24 24">
        <path d="M12 0C5.373 0 0 5.373 0 12s5.373 12 12 12 12-5.373 12-12S18.627 0 12 0zm1.333 17.627c-.412.216-.902.355-1.333.355-.431 0-.921-.139-1.333-.355-1.726-.902-3.922-2.785-3.922-5.627h2.667c0 1.255.921 2.412 2.667 3.216 1.745-.804 2.667-1.961 2.667-3.216h2.667c0 2.842-2.196 4.725-3.922 5.627zM20 10.667h-2.667V8h-2.666v2.667H12V8H9.333v2.667H6.667v2.666h2.666V16h2.667v-2.667H16V16h2.667v-2.667h2.666v-2.666z"/>
    </symbol>

    <symbol id="github" viewBox="0 0 24 24">
        <path d="M12 0c-6.626 0-12 5.373-12 12 0 5.302 3.438 9.8 8.207 11.387.599.111.793-.261.793-.577v-2.234c-3.338.726-4.033-1.416-4.033-1.416-.546-1.387-1.333-1.756-1.333-1.756-1.089-.745.083-.729.083-.729 1.205.084 1.839 1.237 1.839 1.237 1.07 1.834 2.807 1.304 3.492.997.107-.775.418-1.305.762-1.604-2.665-.305-5.467-1.334-5.467-5.931 0-1.311.469-2.381 1.236-3.221-.124-.303-.535-1.524.117-3.176 0 0 1.008-.322 3.301 1.23.957-.266 1.983-.399 3.003-.404 1.02.005 2.047.138 3.006.404 2.291-1.552 3.297-1.23 3.297-1.23.653 1.653.242 2.874.118 3.176.77.84 1.235 1.911 1.235 3.221 0 4.609-2.807 5.624-5.479 5.921.43.372.823 1.102.823 2.222v3.293c0 .319.192.694.801.576 4.765-1.589 8.199-6.086 8.199-11.386 0-6.627-5.373-12-12-12z"/>
    </symbol>

    <symbol id="twitter" viewBox="0 0 24 24">
        <path d="M23.953 4.57a10 10 0 01-2.825.775 4.958 4.958 0 002.163-2.723c-.951.555-2.005.959-3.127 1.184a4.92 4.92 0 00-8.384 4.482C7.69 8.095 4.067 6.13 1.64 3.162a4.822 4.822 0 00-.666 2.475c0 1.71.87 3.213 2.188 4.096a4.904 4.904 0 01-2.228-.616v.06a4.923 4.923 0 003.946 4.827 4.996 4.996 0 01-2.212.085 4.936 4.936 0 004.604 3.417 9.867 9.867 0 01-6.102 2.105c-.39 0-.779-.023-1.17-.067a13.995 13.995 0 007.557 2.209c9.053 0 13.998-7.496 13.998-13.985 0-.21 0-.42-.015-.63A9.935 9.935 0 0024 4.59z"/>
    </symbol>

    <symbol id="netflix" viewBox="0 0 24 24">
        <path d="M5.398 0v.006c3.028 8.556 5.37 15.175 8.348 23.596 2.344.058 4.85.398 4.854.398-2.8-7.924-5.923-16.747-8.487-24zm8.489 0v9.63L18.6 22.951c-.043-7.86-.004-15.913.002-22.95zM5.398 1.05V24c1.873-.225 2.81-.312 4.715-.398v-9.22z"/>
    </symbol>

    <symbol id="amazon" viewBox="0 0 24 24">
        <path d="M16.041 15.405c-.028-.271-.239-.49-.511-.49h-.638c-.143 0-.297.113-.347.255 0 0-1.312 3.083-3.925 3.083-1.491 0-2.399-.873-2.399-2.108 0-1.349.969-2.211 2.519-2.211.664 0 1.37.188 1.936.505l.272-1.754c-.587-.246-1.306-.44-2.3-.44-2.204 0-3.68 1.317-3.68 3.539 0 2.045 1.315 3.605 3.46 3.605 1.914 0 3.346-.997 3.346-.997.286.179.464.474.464.812zm3.204-1.306c0 2.204-1.317 3.446-3.317 3.446s-3.317-1.242-3.317-3.446 1.317-3.446 3.317-3.446 3.317 1.242 3.317 3.446zm-1.794-.026c0-1.014-.661-1.681-1.523-1.681s-1.523.667-1.523 1.681.661 1.681 1.523 1.681 1.523-.667 1.523-1.681zm8.55 2.118h-1.109v1.107h-1.107v-1.107h-1.107v-1.109h1.107v-1.107h1.107v1.107h1.109v1.109zm-2.795-3.243c-2.238 0-3.679 1.54-3.679 3.68 0 2.137 1.441 3.679 3.679 3.679s3.679-1.542 3.679-3.679c0-2.14-1.441-3.68-3.679-3.68zm0 5.929c-1.211 0-2.107-.895-2.107-2.107 0-1.211.896-2.107 2.107-2.107s2.107.896 2.107 2.107c0 1.212-.896 2.107-2.107 2.107z"/>
    </symbol>

    <symbol id="linkedin" viewBox="0 0 24 24">
        <path d="M20.447 20.452h-3.554v-5.569c0-1.328-.027-3.037-1.852-3.037-1.853 0-2.136 1.445-2.136 2.939v5.667H9.351V9h3.414v1.561h.046c.477-.9 1.637-1.85 3.37-1.85 3.601 0 4.267 2.37 4.267 5.455v6.286zM5.337 7.433c-1.144 0-2.063-.926-2.063-2.065 0-1.138.92-2.063 2.063-2.063 1.14 0 2.064.925 2.064 2.063 0 1.139-.925 2.065-2.064 2.065zm1.782 13.019H3.555V9h3.564v11.452zM22.225 0H1.771C.792 0 0 .774 0 1.729v20.542C0 23.227.792 24 1.771 24h20.451C23.2 24 24 23.227 24 22.271V1.729C24 .774 23.2 0 22.222 0h.003z"/>
    </symbol>

    <symbol id="instagram" viewBox="0 0 24 24">
        <path d="M12 2.163c3.204 0 3.584.012 4.85.07 3.252.148 4.771 1.691 4.919 4.919.058 1.265.069 1.645.069 4.849 0 3.205-.012 3.584-.069 4.849-.149 3.225-1.664 4.771-4.919 4.919-1.266.058-1.644.07-4.85.07-3.204 0-3.584-.012-4.849-.07-3.26-.149-4.771-1.699-4.919-4.92-.058-1.265-.07-1.644-.07-4.849 0-3.204.013-3.583.07-4.849.149-3.227 1.664-4.771 4.919-4.919 1.266-.057 1.645-.069 4.849-.069zm0-2.163c-3.259 0-3.667.014-4.947.072-4.358.2-6.78 2.618-6.98 6.98-.059 1.281-.073 1.689-.073 4.948 0 3.259.014 3.668.072 4.948.2 4.358 2.618 6.78 6.98 6.98 1.281.058 1.689.072 4.948.072 3.259 0 3.668-.014 4.948-.072 4.354-.2 6.782-2.618 6.979-6.98.059-1.28.073-1.689.073-4.948 0-3.259-.014-3.667-.072-4.947-.196-4.354-2.617-6.78-6.979-6.98-1.281-.059-1.69-.073-4.949-.073zm0 5.838c-3.403 0-6.162 2.759-6.162 6.162s2.759 6.163 6.162 6.163 6.162-2.759 6.162-6.163c0-3.403-2.759-6.162-6.162-6.162zm0 10.162c-2.209 0-4-1.79-4-4 0-2.209 1.791-4 4-4s4 1.791 4 4c0 2.21-1.791 4-4 4zm6.406-11.845c-.796 0-1.441.645-1.441 1.44s.645 1.44 1.441 1.44c.795 0 1.439-.645 1.439-1.44s-.644-1.44-1.439-1.44z"/>
    </symbol>

    <symbol id="spotify" viewBox="0 0 24 24">
        <path d="M12 0C5.4 0 0 5.4 0 12s5.4 12 12 12 12-5.4 12-12S18.66 0 12 0zm5.521 17.34c-.24.359-.66.48-1.021.24-2.82-1.74-6.36-2.101-10.561-1.141-.418.122-.779-.179-.899-.539-.12-.421.18-.78.54-.9 4.56-1.021 8.52-.6 11.64 1.32.42.18.479.659.301 1.02zm1.44-3.3c-.301.42-.841.6-1.262.3-3.239-2-8.159-2.58-11.939-1.38-.479.12-1.02-.12-1.14-.6-.12-.48.12-1.021.6-1.141C9.6 9.9 15 10.561 18.72 12.84c.361.181.54.78.241 1.2zm.12-3.36C15.24 8.4 8.82 8.16 5.16 9.301c-.6.179-1.2-.181-1.38-.721-.18-.601.18-1.2.72-1.381 4.26-1.26 11.28-1.02 15.721 1.621.539.3.719 1.02.419 1.56-.299.421-1.02.599-1.559.3z"/>
    </symbol>
</svg>